<?xml version="1.0" standalone="no"?>
<!DOCTYPE svg PUBLIC "-//W3C//DTD SVG 20010904//EN"
 "http://www.w3.org/TR/2001/REC-SVG-20010904/DTD/svg10.dtd">
<svg version="1.0" xmlns="http://www.w3.org/2000/svg"
 width="157.000000pt" height="143.000000pt" viewBox="0 0 157.000000 143.000000"
 preserveAspectRatio="xMidYMid meet">

<g transform="translate(0.000000,143.000000) scale(0.100000,-0.100000)"
fill="#000000" stroke="none">
<path d="M850 1275 c-7 -8 -24 -15 -39 -15 -14 0 -35 -7 -45 -15 -27 -20 -48
-19 -74 5 -28 26 -38 25 -79 -6 -24 -18 -33 -32 -30 -45 5 -17 -1 -19 -55 -19
-44 0 -59 3 -55 13 3 9 -9 11 -50 9 -48 -3 -55 -7 -64 -30 -5 -14 -8 -31 -5
-37 4 -12 107 -34 201 -42 28 -2 57 -7 65 -10 33 -13 192 -20 225 -10 11 4 64
17 117 29 54 13 100 28 102 35 3 7 1 25 -5 41 -8 25 -16 29 -49 31 -73 4 -88
6 -84 13 2 4 0 9 -5 12 -5 3 -7 14 -4 25 3 13 -2 20 -19 24 -32 9 -34 9 -48
-8z m96 -90 c-1 -5 -20 -14 -42 -18 -21 -5 -60 -13 -85 -18 -46 -10 -79 -5
-79 13 0 6 18 8 40 6 22 -2 40 -1 40 2 0 3 14 11 30 17 17 6 30 18 30 26 0 12
5 12 35 -2 19 -9 33 -20 31 -26z m-296 -11 c0 -2 -12 -4 -26 -4 -14 0 -23 4
-20 9 6 8 46 4 46 -5z"/>
<path d="M360 867 c0 -112 4 -188 10 -192 5 -3 7 0 4 8 -4 11 9 16 53 20 32 3
59 11 61 17 4 12 69 14 76 1 3 -4 34 -11 68 -15 35 -3 82 -9 106 -12 l42 -7 0
151 0 150 -62 11 c-35 7 -85 14 -113 15 -27 2 -57 6 -65 9 -8 3 -37 8 -65 12
-27 3 -65 9 -82 12 l-33 5 0 -185z m234 102 c-3 -5 -10 -7 -15 -3 -5 3 -7 10
-3 15 3 5 10 7 15 3 5 -3 7 -10 3 -15z m-149 -19 c-6 -9 -9 -9 -16 1 -10 17 0
34 13 21 6 -6 7 -16 3 -22z m184 -46 c-10 -13 -10 -17 2 -25 8 -5 23 -7 35 -4
17 4 21 0 21 -25 0 -35 -5 -37 -23 -12 -12 16 -14 16 -29 1 -14 -13 -15 -21
-6 -38 7 -13 8 -21 2 -21 -12 0 -81 61 -81 71 0 16 57 68 74 69 16 0 16 -2 5
-16z m-129 -2 c0 -13 -12 -22 -22 -16 -10 6 -1 24 13 24 5 0 9 -4 9 -8z"/>
<path d="M575 850 c3 -5 10 -10 16 -10 5 0 9 5 9 10 0 6 -7 10 -16 10 -8 0
-12 -4 -9 -10z"/>
<path d="M940 1031 c-47 -10 -100 -23 -117 -30 l-33 -13 0 -149 c0 -165 -2
-162 67 -137 20 7 32 17 29 25 -8 19 4 43 20 43 21 0 17 18 -6 30 -11 6 -20
16 -20 22 0 7 5 6 15 -2 12 -10 16 -9 21 5 5 11 1 21 -9 27 -21 11 -22 29 -2
22 9 -4 15 0 15 9 0 9 5 19 11 23 9 5 10 -1 5 -20 -4 -15 -2 -26 4 -26 5 0 10
5 10 11 0 5 5 7 12 3 8 -5 5 -13 -10 -25 -23 -18 -29 -39 -13 -39 6 0 13 5 16
10 4 6 11 8 16 4 14 -8 0 -24 -22 -24 -10 0 -19 -5 -19 -11 0 -14 26 -39 41
-39 10 0 10 -3 1 -12 -10 -10 -15 -10 -22 2 -5 8 -12 11 -16 7 -12 -12 40 -46
72 -47 16 0 35 -5 42 -12 9 -9 12 30 12 175 0 172 -1 187 -17 186 -10 -1 -56
-9 -103 -18z"/>
<path d="M890 740 c0 -5 7 -10 15 -10 8 0 15 5 15 10 0 6 -7 10 -15 10 -8 0
-15 -4 -15 -10z"/>
<path d="M360 651 c0 -6 -9 -20 -20 -31 -25 -25 -26 -60 -1 -87 14 -15 42 -24
103 -32 116 -17 197 -29 271 -42 59 -10 74 -8 207 25 80 20 149 41 154 46 17
17 16 100 0 100 -8 0 -14 7 -14 15 0 8 -4 15 -10 15 -5 0 -10 -4 -10 -10 0 -5
-18 -13 -40 -16 -22 -4 -40 -11 -40 -15 0 -5 -11 -7 -24 -5 -13 2 -27 1 -31
-2 -4 -4 -10 -7 -13 -8 -4 0 -15 -4 -24 -8 -9 -4 -25 -6 -35 -4 -10 2 -23 -3
-29 -11 -7 -9 -16 -11 -25 -5 -8 4 -43 10 -78 11 -35 2 -82 8 -105 14 -22 6
-59 12 -81 14 -22 2 -53 6 -70 10 -16 4 -35 8 -41 9 -7 1 -19 8 -28 15 -11 9
-16 10 -16 2z"/>
</g>
</svg>
